<?xml version="1.0" encoding="UTF-8"?>
<svg version="1.1" xmlns="http://www.w3.org/2000/svg" width="1500" height="1500">
<path d="M0 0 C2.92111977 -0.29740875 5.63060398 -0.39630933 8.55453682 -0.36914349 C9.45505931 -0.37260502 10.3555818 -0.37606655 11.28339285 -0.37963298 C14.33485331 -0.38764456 17.3858495 -0.37405658 20.43728638 -0.36076355 C22.63340742 -0.3620704 24.82952801 -0.36469458 27.02564609 -0.36853105 C33.08682389 -0.3752717 39.14784408 -0.36319433 45.20900178 -0.34819686 C51.06587666 -0.33661575 56.92273366 -0.33907496 62.7796171 -0.34124239 C74.7649964 -0.34518916 86.75032619 -0.33514069 98.73569107 -0.31719017 C110.60732391 -0.29945545 122.47893613 -0.28789564 134.35058212 -0.28463173 C135.08798113 -0.28442551 135.82538014 -0.28421929 136.58512457 -0.28400682 C140.32981053 -0.28299186 144.0744965 -0.2820877 147.8191825 -0.2812262 C174.36140265 -0.27492044 200.90359583 -0.25469577 227.44580078 -0.22631836 C253.23551286 -0.19877724 279.02521757 -0.17752044 304.81494141 -0.16479492 C305.6095161 -0.16440034 306.40409079 -0.16400576 307.22274351 -0.16359923 C315.20199297 -0.15964376 323.18124249 -0.15581631 331.16049206 -0.15208265 C347.41598558 -0.14447346 363.67147862 -0.1360097 379.92697144 -0.12702942 C380.67441696 -0.12661755 381.42186249 -0.12620568 382.19195788 -0.12578133 C405.10780303 -0.11310889 428.0236436 -0.09681344 450.93948364 -0.07695007 C452.86576616 -0.07528257 452.86576616 -0.07528257 454.83096348 -0.07358138 C480.55397757 -0.05109462 506.27698834 -0.02509223 532 0 C532 42.57 532 85.14 532 129 C371.125 129.495 371.125 129.495 207 130 C210.3 134.62 213.6 139.24 217 144 C219.38884687 147.64613469 221.72291061 151.28713522 224 155 C224.68578125 156.10472656 225.3715625 157.20945312 226.078125 158.34765625 C237.89314739 177.56111447 247.15563731 197.51039397 255.3125 218.5 C255.745625 219.61060791 256.17875 220.72121582 256.625 221.86547852 C257.03363281 222.93080811 257.44226563 223.9961377 257.86328125 225.09375 C258.22719971 226.03927734 258.59111816 226.98480469 258.96606445 227.95898438 C260.19467896 231.57259058 261.07430016 235.29720062 262 239 C358.03 239.495 358.03 239.495 456 240 C456 282.9 456 325.8 456 370 C396.27 370 336.54 370 275 370 C274.34 377.26 273.68 384.52 273 392 C271.09482756 404.79187207 268.08271893 416.7518432 264 429 C254.76455233 426.93098231 245.64863798 424.67166566 236.59008789 421.92700195 C231.09827625 420.28052313 225.56934247 418.85905163 220 417.5 C213.88297927 416.00707953 207.83422119 414.4020834 201.8125 412.5625 C193.48146602 410.02308306 185.03334042 408.02554888 176.55200195 406.05493164 C171.60765785 404.90006828 166.7975634 403.67810273 162 402 C159.71339623 401.35672376 157.42124166 400.73297646 155.125 400.125 C154.16630005 399.87000732 154.16630005 399.87000732 153.18823242 399.60986328 C149.66856424 398.67988181 146.14247616 397.78360438 142.60546875 396.921875 C141.88794434 396.74640137 141.17041992 396.57092773 140.43115234 396.39013672 C139.04844731 396.05394086 137.66469032 395.72203413 136.27978516 395.39501953 C132.95878016 394.58867106 129.97483417 393.70205702 127 392 C127.11657585 390.18693869 127.24378959 388.374561 127.375 386.5625 C127.44460938 385.55316406 127.51421875 384.54382813 127.5859375 383.50390625 C127.89425573 380.89483594 128.30861617 378.62281819 128.93359375 376.09765625 C130.38305516 369.8265575 130.90683596 363.44311797 131.48754883 357.04589844 C131.68529472 354.89894304 131.90173113 352.75441633 132.11914062 350.609375 C133.01597725 341.24003676 132.89751767 332.39145724 132 323 C131.88000451 321.44532822 131.76017689 319.89064346 131.640625 318.3359375 C130.48367393 306.60445366 127.99002587 295.39182371 125 284 C124.77441406 283.10861328 124.54882812 282.21722656 124.31640625 281.29882812 C122.6207753 274.7789428 120.45378859 268.59572246 117.875 262.375 C117.48393066 261.42713623 117.09286133 260.47927246 116.68994141 259.50268555 C109.69749324 242.86871098 100.80663949 227.66328175 89.72265625 213.43359375 C88 211 88 211 88 209 C87.34 209 86.68 209 86 209 C84.69342506 207.48449078 83.45394299 205.91075765 82.25 204.3125 C79.08176852 200.24478869 76.05020921 197.15016272 72 194 C69.79013211 191.84679539 67.62229743 189.66827191 65.51953125 187.41015625 C59.29019918 180.88489391 52.02040116 175.77160708 44.3125 171.125 C43.219375 170.42375 42.12625 169.7225 41 169 C41 168.34 41 167.68 41 167 C40.43410156 166.89171875 39.86820313 166.7834375 39.28515625 166.671875 C36.6522955 165.89776893 34.74862844 164.72729462 32.4375 163.25 C27.16172842 159.99490397 21.68896352 157.44430752 16 155 C16 154.34 16 153.68 16 153 C15.030625 152.9175 14.06125 152.835 13.0625 152.75 C10.09420011 152.32511413 7.70944091 151.52503102 5 150.25 C-5.24802505 145.44896612 -18.63959948 140 -30 140 C-29.31020105 132.12266629 -27.74532435 124.53250715 -26.0625 116.8125 C-25.79759766 115.56791016 -25.53269531 114.32332031 -25.25976562 113.04101562 C-24.07880104 107.56989684 -22.79239546 102.30471507 -21 97 C-20.54240779 94.65344483 -20.13076257 92.29773975 -19.75 89.9375 C-18.34005754 81.54337915 -16.65815855 73.21041513 -14.9375 64.875 C-14.68000977 63.6180835 -14.42251953 62.36116699 -14.15722656 61.06616211 C-12.08255595 51.07191281 -12.08255595 51.07191281 -10.8984375 47.0625 C-9.93136289 43.76603697 -9.29058111 40.50669406 -8.6875 37.125 C-8.43349121 35.73806103 -8.17818589 34.35135914 -7.921875 32.96484375 C-7.70821289 31.80831299 -7.70821289 31.80831299 -7.49023438 30.62841797 C-6.49823046 25.30973561 -5.47418994 19.99763512 -4.4375 14.6875 C-4.22762451 13.5835791 -4.01774902 12.4796582 -3.80151367 11.34228516 C-3.5976001 10.30507324 -3.39368652 9.26786133 -3.18359375 8.19921875 C-3.00368896 7.26940186 -2.82378418 6.33958496 -2.63842773 5.3815918 C-2 3 -2 3 0 0 Z " fill="#090909" transform="translate(625,480)"/>
<path d="M0 0 C0.85513687 -0.0033284 1.71027374 -0.0066568 2.59132385 -0.01008606 C4.40617333 -0.01515187 6.22103213 -0.01749449 8.03588867 -0.01733398 C10.7747402 -0.01949832 13.51317406 -0.03759556 16.25195312 -0.05664062 C25.52488174 -0.0861205 34.26342965 0.29265892 43.37890625 2.16796875 C45.14837911 2.40741363 46.9191401 2.63765981 48.69140625 2.85546875 C87.06535233 9.30148594 120.51313254 29.83089648 148.37890625 56.16796875 C149.66474609 57.37259766 149.66474609 57.37259766 150.9765625 58.6015625 C161.90579533 69.14974442 170.44921159 81.28416229 178.37890625 94.16796875 C178.92160156 95.01746094 179.46429687 95.86695313 180.0234375 96.7421875 C186.58165749 107.21111387 191.35449138 118.4855525 195.3359375 130.14453125 C195.97191426 131.98814928 196.64851973 133.81918901 197.39453125 135.62109375 C204.32404771 153.54984268 205.87268942 173.47007996 205.66015625 192.47851562 C205.62854334 195.32565303 205.61911787 198.17223419 205.61328125 201.01953125 C205.60412395 202.86328793 205.59375228 204.70703908 205.58203125 206.55078125 C205.57778137 207.38529816 205.57353149 208.21981506 205.56915283 209.07962036 C205.48611896 215.98405201 205.0672326 222.88021177 203.4609375 229.6171875 C203.19917725 230.7316626 203.19917725 230.7316626 202.93212891 231.86865234 C202.74956543 232.62742676 202.56700195 233.38620117 202.37890625 234.16796875 C202.19763184 234.9563916 202.01635742 235.74481445 201.82958984 236.55712891 C199.70351284 245.76644774 197.53365362 254.72174966 193.6328125 263.3671875 C192.22682825 266.50765699 191.02082954 269.69512356 189.81640625 272.91796875 C187.94145195 277.84862389 185.84611898 282.50767804 183.37890625 287.16796875 C182.71890625 287.16796875 182.05890625 287.16796875 181.37890625 287.16796875 C181.27320313 287.71710938 181.1675 288.26625 181.05859375 288.83203125 C178.1597222 298.79481968 170.27926743 307.52108882 163.81054688 315.41894531 C162.37001657 317.1788292 160.94431174 318.95000982 159.51953125 320.72265625 C154.48674223 326.91576045 154.48674223 326.91576045 152.37890625 329.16796875 C151.71890625 329.16796875 151.05890625 329.16796875 150.37890625 329.16796875 C150.04890625 330.15796875 149.71890625 331.14796875 149.37890625 332.16796875 C148.71890625 332.16796875 148.05890625 332.16796875 147.37890625 332.16796875 C147.04890625 333.15796875 146.71890625 334.14796875 146.37890625 335.16796875 C144.26953125 337.03515625 144.26953125 337.03515625 141.62890625 339.04296875 C138.8738831 341.14635469 136.34038914 343.2068498 133.8984375 345.671875 C120.46135238 358.98396398 100.97013977 368.78456305 83.37890625 375.16796875 C81.04402573 376.16435092 78.71054754 377.16402985 76.37890625 378.16796875 C66.76672115 381.74767906 56.95211259 384.23513972 46.8125 385.73828125 C44.38029521 386.04857323 44.38029521 386.04857323 42.37890625 387.16796875 C40.45046713 387.26946981 38.51849862 387.30637132 36.58740234 387.31323242 C35.37208832 387.31961227 34.15677429 387.32599213 32.90463257 387.33256531 C31.5705367 387.33409478 30.2364403 387.33520832 28.90234375 387.3359375 C27.53431157 387.33915148 26.16627974 387.34251566 24.79824829 387.34602356 C21.92489832 387.35201893 19.05157844 387.35386325 16.17822266 387.35327148 C12.5133083 387.35317032 8.84858969 387.36677279 5.18372154 387.38404369 C2.3542494 387.39522182 -0.47517647 387.39718885 -3.30466843 387.39666176 C-5.3075072 387.3984026 -7.31033153 387.40921446 -9.31314087 387.42021179 C-15.79159626 387.40406257 -21.42649255 387.08759724 -27.62109375 385.16796875 C-30.37899961 384.64678969 -33.14070483 384.18527602 -35.91015625 383.73046875 C-38.92252816 383.10542328 -41.71507274 382.17685151 -44.62109375 381.16796875 C-45.74644531 380.8121875 -46.87179687 380.45640625 -48.03125 380.08984375 C-60.566374 376.06787883 -72.19580754 370.72495724 -83.62109375 364.16796875 C-84.18554199 363.8445752 -84.74999023 363.52118164 -85.33154297 363.18798828 C-92.50578961 359.05233683 -99.48810398 354.70739331 -106.24609375 349.91796875 C-106.81368408 349.51803711 -107.38127441 349.11810547 -107.96606445 348.70605469 C-111.52321458 346.13626256 -114.56425536 343.30645892 -117.62109375 340.16796875 C-119.47744472 338.57732372 -121.36438988 337.03639256 -123.265625 335.5 C-123.71292969 335.06042969 -124.16023438 334.62085938 -124.62109375 334.16796875 C-124.62109375 333.50796875 -124.62109375 332.84796875 -124.62109375 332.16796875 C-125.61109375 331.83796875 -126.60109375 331.50796875 -127.62109375 331.16796875 C-127.62109375 330.50796875 -127.62109375 329.84796875 -127.62109375 329.16796875 C-128.19601562 328.93722656 -128.7709375 328.70648437 -129.36328125 328.46875 C-132.20241404 326.83305585 -133.70960767 324.9217418 -135.74609375 322.35546875 C-136.53113281 321.36675781 -137.31617188 320.37804687 -138.125 319.359375 C-138.73819092 318.57457764 -138.73819092 318.57457764 -139.36376953 317.77392578 C-140.61453738 316.17634308 -141.8804259 314.59172672 -143.1484375 313.0078125 C-158.62109375 293.49738807 -158.62109375 293.49738807 -158.62109375 287.16796875 C-159.28109375 287.16796875 -159.94109375 287.16796875 -160.62109375 287.16796875 C-168.32355592 270.46794015 -174.98586137 254.08068525 -179.15037537 236.14872742 C-179.45704606 234.85827297 -179.78555528 233.57275362 -180.1388092 232.29426575 C-181.92811485 225.37275224 -181.92710197 218.58866533 -181.921875 211.47265625 C-181.92616013 210.16700714 -181.93044525 208.86135803 -181.93486023 207.5161438 C-181.9422827 204.76104656 -181.94206201 202.00607751 -181.93676758 199.25097656 C-181.9310034 195.76506506 -181.94784867 192.27969021 -181.97111225 188.79386711 C-181.98962687 185.41594423 -181.98565908 182.03812916 -181.984375 178.66015625 C-181.99358475 177.43150848 -182.00279449 176.20286072 -182.01228333 174.9369812 C-181.9654505 165.98150095 -180.63601178 157.86054963 -178.62109375 149.16796875 C-178.44384262 148.38225998 -178.26659149 147.59655121 -178.08396912 146.78703308 C-176.32122706 139.25948675 -174.0042888 132.10993673 -170.88671875 125.0390625 C-170.06447518 123.17378773 -169.28064137 121.29093381 -168.54296875 119.390625 C-151.23571278 74.96460527 -113.2656838 36.57764382 -69.99609375 17.04296875 C-52.38779445 9.32248032 -34.10832679 3.69007611 -14.9921875 1.59765625 C-2.48423925 0.00336389 -2.48423925 0.00336389 0 0 Z " fill="#090909" transform="translate(525.62109375,633.83203125)"/>
</svg>
