<?xml version="1.0" standalone="no"?>
<!DOCTYPE svg PUBLIC "-//W3C//DTD SVG 20010904//EN"
 "http://www.w3.org/TR/2001/REC-SVG-20010904/DTD/svg10.dtd">
<svg version="1.0" xmlns="http://www.w3.org/2000/svg"
 width="500.000000pt" height="500.000000pt" viewBox="0 0 500.000000 500.000000"
 preserveAspectRatio="xMidYMid meet">

<g transform="translate(0.000000,500.000000) scale(0.100000,-0.100000)"
fill="#000000" stroke="none">
<path d="M2085 3388 c-2 -7 -22 -103 -45 -213 -23 -110 -44 -208 -46 -217 -4
-13 8 -20 53 -33 231 -67 414 -266 468 -509 16 -71 17 -209 3 -301 -3 -16 11
-23 102 -47 58 -15 156 -42 218 -59 63 -17 116 -29 118 -26 9 9 33 121 34 155
l0 32 305 0 305 0 0 215 0 215 -324 0 -323 0 -23 63 c-25 70 -100 216 -136
264 -13 17 -24 34 -24 37 0 3 244 7 543 8 l542 3 3 213 2 212 -885 0 c-700 0
-886 -3 -890 -12z"/>
<path d="M1638 2865 c-114 -29 -206 -83 -299 -175 -139 -139 -194 -278 -187
-475 7 -177 64 -308 186 -428 76 -76 165 -131 257 -160 100 -32 290 -32 390 0
192 61 357 226 418 418 18 58 22 92 21 200 -1 113 -4 139 -27 203 -68 195
-214 335 -422 407 -68 24 -260 30 -337 10z"/>
</g>
</svg>
